<?xml version="1.0" standalone="no"?>
<!DOCTYPE svg PUBLIC "-//W3C//DTD SVG 20010904//EN"
 "http://www.w3.org/TR/2001/REC-SVG-20010904/DTD/svg10.dtd">
<svg version="1.0" xmlns="http://www.w3.org/2000/svg"
 width="512.000000pt" height="512.000000pt" viewBox="0 0 512.000000 512.000000"
 preserveAspectRatio="xMidYMid meet">
<metadata>
Created by potrace 1.15, written by Peter Selinger 2001-2017
</metadata>
<g transform="translate(0.000000,512.000000) scale(0.100000,-0.100000)"
fill="#000000" stroke="none">
<path d="M2445 4694 c-530 -56 -946 -243 -1299 -584 -403 -390 -623 -883 -643
-1440 -12 -353 58 -684 211 -995 110 -223 228 -388 406 -565 309 -309 685
-504 1130 -585 122 -22 463 -32 586 -16 636 82 1164 406 1516 931 411 612 461
1433 128 2092 -111 220 -221 371 -399 549 -325 325 -724 527 -1171 594 -104
15 -389 27 -465 19z m476 -268 c591 -111 1084 -481 1344 -1011 212 -432 248
-937 98 -1398 -47 -144 -164 -376 -250 -496 -81 -113 -237 -278 -342 -363
-509 -411 -1193 -527 -1801 -307 -604 220 -1052 735 -1185 1363 -109 514 8
1060 319 1480 296 402 723 660 1226 740 124 20 467 15 591 -8z"/>
<path d="M2166 3419 c-65 -18 -97 -79 -76 -144 10 -30 69 -78 431 -347 230
-172 419 -315 418 -318 0 -3 -176 -135 -391 -295 -216 -159 -407 -303 -425
-318 -38 -34 -51 -83 -33 -128 30 -72 106 -90 177 -41 155 105 954 711 962
730 17 35 13 97 -6 120 -32 37 -980 739 -1004 744 -14 2 -37 1 -53 -3z"/>
</g>
</svg>
